<?xml version="1.0" encoding="UTF-8"?>
<svg xmlns="http://www.w3.org/2000/svg" xmlns:xlink="http://www.w3.org/1999/xlink" width="1134.18pt" height="594.017pt" viewBox="0 0 1134.18 594.017">
<path fill-rule="nonzero" fill="rgb(94.586182%, 29.980469%, 19.529724%)" fill-opacity="1" d="M 914.523438 207.367188 C 914.523438 207.367188 933.515625 229.5625 936.949219 233.679688 C 932.828125 241.917969 908.574219 283.335938 928.023438 329.78125 C 939.464844 361.589844 960.054688 381.035156 978.820312 401.859375 C 970.585938 410.324219 957.769531 423.367188 956.394531 424.511719 C 921.386719 394.765625 886.605469 341.683594 887.753906 289.511719 C 888.71875 245.351562 907.660156 219.035156 914.523438 207.367188 "/>
<path fill-rule="nonzero" fill="rgb(94.586182%, 29.980469%, 19.529724%)" fill-opacity="1" d="M 999.988281 376.101562 C 999.988281 376.101562 980.996094 353.910156 977.5625 349.789062 C 981.683594 341.550781 1005.9375 300.136719 986.488281 253.6875 C 975.050781 221.882812 954.457031 202.433594 935.691406 181.613281 C 943.929688 173.144531 956.746094 160.101562 958.113281 158.957031 C 993.125 188.703125 1027.90625 241.789062 1026.761719 293.957031 C 1025.792969 338.121094 1006.851562 364.433594 999.988281 376.101562 "/>
<path fill-rule="nonzero" fill="rgb(100%, 100%, 100%)" fill-opacity="1" d="M 617.828125 373.8125 C 619.542969 372.066406 620.398438 369.574219 620.398438 366.328125 C 620.398438 363.328125 619.496094 361 617.691406 359.347656 C 615.882812 357.695312 612.960938 356.867188 608.921875 356.867188 L 596.980469 356.867188 L 596.980469 376.429688 L 609.472656 376.429688 C 613.328125 376.429688 616.113281 375.554688 617.828125 373.8125 M 614.339844 345.433594 C 615.808594 344.546875 616.910156 343.402344 617.644531 341.992188 C 618.378906 340.582031 618.746094 339.050781 618.746094 337.398438 C 618.746094 334.828125 617.875 332.777344 616.128906 331.246094 C 614.386719 329.714844 611.613281 328.953125 607.816406 328.953125 L 596.980469 328.953125 L 596.980469 346.765625 L 608.828125 346.765625 C 611.03125 346.765625 612.867188 346.324219 614.339844 345.433594 M 583.074219 318.847656 L 609.195312 318.847656 C 617.03125 318.847656 622.785156 320.289062 626.460938 323.164062 C 630.136719 326.042969 631.972656 330.296875 631.972656 335.929688 C 631.972656 339.296875 631.191406 342.3125 629.628906 344.976562 C 628.066406 347.640625 625.601562 349.738281 622.238281 351.265625 C 625.910156 352.308594 628.804688 354.25 630.914062 357.097656 C 633.027344 359.945312 634.082031 363.296875 634.082031 367.15625 C 634.082031 373.582031 632.140625 378.496094 628.253906 381.894531 C 624.363281 385.292969 618.410156 386.992188 610.390625 386.992188 L 583.074219 386.992188 Z M 583.074219 318.847656 "/>
<path fill-rule="nonzero" fill="rgb(100%, 100%, 100%)" fill-opacity="1" d="M 742.378906 386.992188 L 742.378906 354.941406 C 742.378906 351.757812 741.859375 349.351562 740.820312 347.730469 C 739.777344 346.109375 737.972656 345.296875 735.402344 345.296875 C 733.566406 345.296875 731.527344 345.816406 729.292969 346.859375 C 727.058594 347.898438 724.992188 349.152344 723.09375 350.625 L 723.09375 386.992188 L 709.1875 386.992188 L 709.1875 335.378906 L 722.453125 335.378906 L 722.453125 341.257812 C 725.269531 339.113281 728.082031 337.429688 730.902344 336.207031 C 733.71875 334.980469 736.65625 334.367188 739.71875 334.367188 C 744.738281 334.367188 749.707031 335.761719 752.339844 338.546875 C 754.972656 341.335938 756.289062 345.144531 756.289062 349.980469 L 756.289062 386.992188 Z M 742.378906 386.992188 "/>
<path fill-rule="nonzero" fill="rgb(100%, 100%, 100%)" fill-opacity="1" d="M 805.867188 386.992188 L 791.082031 364.214844 L 787.589844 367.886719 L 787.589844 386.992188 L 773.683594 386.992188 L 773.683594 317.5625 L 787.589844 317.5625 L 787.589844 352.183594 L 803.203125 335.378906 L 818.171875 335.378906 L 799.714844 355.214844 L 820.558594 386.992188 Z M 805.867188 386.992188 "/>
<path fill-rule="nonzero" fill="rgb(100%, 100%, 100%)" fill-opacity="1" d="M 677.789062 374.734375 L 677.789062 363.871094 L 668.589844 363.871094 C 663.523438 363.871094 659.367188 366.640625 659.367188 371.644531 C 659.367188 376.4375 663.523438 379.207031 668.589844 379.207031 C 672.742188 379.207031 675.660156 377.714844 677.789062 374.734375 M 677.789062 354.070312 C 677.789062 348.851562 674.667969 345.445312 668.183594 345.445312 C 662.914062 345.445312 658.050781 347.46875 653.894531 351.515625 L 649.03125 342.464844 C 655.011719 336.925781 662.710938 334.367188 670.414062 334.367188 C 681.558594 334.367188 691.792969 339.054688 691.792969 353.859375 L 691.792969 386.992188 L 677.789062 386.992188 L 677.789062 381.765625 C 674.445312 385.917969 669.804688 388.367188 663.421875 388.367188 C 655.617188 388.367188 646.398438 382.832031 646.398438 371.328125 C 646.398438 359.292969 655.617188 354.710938 663.421875 354.710938 L 677.789062 354.710938 Z M 677.789062 354.070312 "/>
<path fill-rule="nonzero" fill="rgb(100%, 100%, 100%)" fill-opacity="1" d="M 167.070312 333.542969 L 158.070312 361.277344 L 176.253906 361.277344 Z M 184.703125 386.992188 L 179.742188 371.835938 L 154.671875 371.835938 L 149.804688 386.992188 L 136.394531 386.992188 L 160.546875 318.847656 L 174.140625 318.847656 L 198.570312 386.992188 Z M 184.703125 386.992188 "/>
<path fill-rule="nonzero" fill="rgb(100%, 100%, 100%)" fill-opacity="1" d="M 299.203125 352.460938 C 301.742188 354.175781 303.703125 356.257812 305.078125 358.703125 C 306.457031 361.15625 307.144531 364.15625 307.144531 367.703125 C 307.144531 372.296875 306.011719 376.140625 303.75 379.230469 C 301.480469 382.324219 298.480469 384.617188 294.75 386.117188 C 291.011719 387.617188 286.910156 388.367188 282.441406 388.367188 C 277.910156 388.367188 273.519531 387.542969 269.265625 385.890625 C 265.007812 384.234375 261.257812 381.816406 258.015625 378.632812 L 264.992188 369.910156 C 267.75 372.542969 270.609375 374.5625 273.578125 375.972656 C 276.550781 377.378906 279.410156 378.082031 282.167969 378.082031 C 285.347656 378.082031 287.84375 377.53125 290.019531 376.0625 C 292.191406 374.59375 293.277344 372.421875 293.277344 369.542969 C 293.277344 367.890625 292.878906 366.480469 292.085938 365.316406 C 291.289062 364.15625 290.140625 363.128906 288.640625 362.242188 C 287.140625 361.355469 285.257812 360.175781 282.625 359.070312 L 276.011719 356.410156 C 272.460938 355 269.523438 353.472656 267.195312 351.816406 C 264.867188 350.164062 263.078125 348.144531 261.824219 345.753906 C 260.570312 343.367188 259.941406 340.523438 259.941406 337.214844 C 259.941406 333.054688 260.96875 329.488281 263.019531 326.519531 C 265.070312 323.546875 267.886719 321.3125 271.46875 319.8125 C 275.050781 318.3125 279.105469 317.5625 283.636719 317.5625 C 287.980469 317.5625 292.070312 318.328125 295.894531 319.859375 C 299.722656 321.390625 303.105469 323.625 306.042969 326.5625 L 299.25 335.285156 C 297.042969 333.023438 294.53125 331.214844 291.71875 329.867188 C 288.902344 328.523438 286.207031 327.847656 283.636719 327.847656 C 280.515625 327.847656 278.71875 328.535156 276.789062 329.914062 C 274.859375 331.292969 273.894531 333.328125 273.894531 336.023438 C 273.894531 337.917969 274.644531 339.464844 276.144531 340.660156 C 277.644531 341.855469 279.226562 343.09375 282.351562 344.378906 L 288.960938 347.132812 C 293.246094 348.972656 296.660156 350.746094 299.203125 352.460938 "/>
<path fill-rule="nonzero" fill="rgb(100%, 100%, 100%)" fill-opacity="1" d="M 504.125 386.992188 L 504.125 354.757812 C 504.125 351.449219 503.710938 349.050781 502.886719 347.546875 C 502.058594 346.046875 501.082031 345.296875 498.820312 345.296875 C 497.105469 345.296875 495.25 345.789062 493.261719 346.765625 C 491.273438 347.746094 489.421875 349.03125 487.707031 350.625 L 487.707031 386.992188 L 473.796875 386.992188 L 473.796875 335.378906 L 487.0625 335.378906 L 487.0625 341.257812 C 489.453125 339.234375 492.070312 337.582031 494.914062 336.296875 C 497.761719 335.011719 500.53125 334.367188 503.226562 334.367188 C 506.472656 334.367188 509.132812 335.042969 511.21875 336.390625 C 513.296875 337.734375 514.890625 339.601562 515.992188 341.992188 C 518.503906 339.785156 521.195312 337.964844 524.074219 336.527344 C 526.949219 335.089844 529.890625 334.367188 532.890625 334.367188 C 537.480469 334.367188 542.144531 335.761719 544.59375 338.546875 C 547.042969 341.335938 548.269531 345.144531 548.269531 349.980469 L 548.269531 386.992188 L 534.359375 386.992188 L 534.359375 353.101562 C 534.359375 350.164062 533.867188 348.128906 532.890625 346.996094 C 531.910156 345.863281 530.472656 345.296875 528.574219 345.296875 C 526.613281 345.296875 525.195312 345.847656 523.175781 346.949219 C 521.15625 348.054688 519.441406 349.308594 518.03125 350.714844 L 518.03125 386.992188 Z M 504.125 386.992188 "/>
<path fill-rule="nonzero" fill="rgb(100%, 100%, 100%)" fill-opacity="1" d="M 442.402344 374.734375 L 442.402344 363.871094 L 433.199219 363.871094 C 428.132812 363.871094 423.980469 366.640625 423.980469 371.644531 C 423.980469 376.4375 428.132812 379.207031 433.199219 379.207031 C 437.355469 379.207031 440.273438 377.714844 442.402344 374.734375 M 442.402344 354.070312 C 442.402344 348.851562 439.28125 345.445312 432.796875 345.445312 C 427.527344 345.445312 422.664062 347.46875 418.507812 351.515625 L 413.644531 342.464844 C 419.621094 336.925781 427.324219 334.367188 435.023438 334.367188 C 446.171875 334.367188 456.40625 339.054688 456.40625 353.859375 L 456.40625 386.992188 L 442.402344 386.992188 L 442.402344 381.765625 C 439.058594 385.917969 434.417969 388.367188 428.03125 388.367188 C 420.230469 388.367188 411.011719 382.832031 411.011719 371.328125 C 411.011719 359.292969 420.230469 354.710938 428.03125 354.710938 L 442.402344 354.710938 Z M 442.402344 354.070312 "/>
<path fill-rule="nonzero" fill="rgb(100%, 100%, 100%)" fill-opacity="1" d="M 350.847656 374.734375 L 350.847656 363.871094 L 341.648438 363.871094 C 336.582031 363.871094 332.425781 366.640625 332.425781 371.644531 C 332.425781 376.4375 336.582031 379.207031 341.648438 379.207031 C 345.804688 379.207031 348.722656 377.714844 350.847656 374.734375 M 350.847656 354.070312 C 350.847656 348.851562 347.730469 345.445312 341.242188 345.445312 C 335.972656 345.445312 331.109375 347.46875 326.957031 351.515625 L 322.09375 342.464844 C 328.070312 336.925781 335.773438 334.367188 343.472656 334.367188 C 354.621094 334.367188 364.851562 339.054688 364.851562 353.859375 L 364.851562 386.992188 L 350.847656 386.992188 L 350.847656 381.765625 C 347.503906 385.917969 342.863281 388.367188 336.480469 388.367188 C 328.679688 388.367188 319.457031 382.832031 319.457031 371.328125 C 319.457031 359.292969 328.679688 354.710938 336.480469 354.710938 L 350.847656 354.710938 Z M 350.847656 354.070312 "/>
<path fill-rule="nonzero" fill="rgb(100%, 100%, 100%)" fill-opacity="1" d="M 382.246094 319.226562 L 396.15625 317.5625 L 396.15625 386.992188 L 382.246094 386.992188 Z M 382.246094 319.226562 "/>
<path fill-rule="nonzero" fill="rgb(100%, 100%, 100%)" fill-opacity="1" d="M 209.339844 319.226562 L 223.246094 317.5625 L 223.246094 386.992188 L 209.339844 386.992188 Z M 209.339844 319.226562 "/>
<path fill-rule="nonzero" fill="rgb(100%, 100%, 100%)" fill-opacity="1" d="M 625.351562 230.757812 L 616.21875 230.757812 C 614.832031 230.757812 613.789062 230.414062 613.210938 229.605469 C 612.632812 228.792969 612.289062 227.753906 612.289062 226.480469 C 612.289062 225.210938 612.632812 224.167969 613.210938 223.476562 C 613.789062 222.78125 614.484375 222.4375 615.292969 222.4375 C 616.21875 222.4375 617.027344 222.667969 617.605469 223.246094 C 618.183594 223.824219 618.53125 224.632812 618.644531 225.671875 L 624.890625 225.671875 C 624.773438 224.167969 624.425781 222.898438 623.847656 221.859375 C 623.269531 220.816406 622.578125 220.007812 621.652344 219.3125 C 620.726562 218.621094 619.6875 218.15625 618.53125 217.8125 C 617.375 217.464844 616.21875 217.347656 615.0625 217.347656 C 612.171875 217.347656 609.742188 218.042969 607.894531 219.542969 C 606.042969 221.046875 605.117188 223.128906 605.117188 225.789062 C 605.117188 227.523438 605.699219 229.027344 606.738281 230.296875 L 606.738281 230.644531 L 603.617188 230.757812 L 603.617188 236.078125 L 625.351562 236.078125 Z M 625.351562 230.757812 "/>
<path fill-rule="nonzero" fill="rgb(100%, 100%, 100%)" fill-opacity="1" d="M 184.621094 249.460938 C 184.621094 250.136719 184.074219 250.683594 183.402344 250.683594 L 166.757812 250.683594 C 166.082031 250.683594 165.535156 250.136719 165.535156 249.460938 L 165.535156 237.5 C 165.535156 234.019531 166.351562 231.480469 167.96875 229.871094 C 167.980469 229.847656 168.003906 229.835938 168.015625 229.824219 C 169.527344 228.359375 171.882812 227.578125 175.085938 227.460938 C 175.375 227.4375 175.667969 227.4375 175.96875 227.4375 C 178.300781 227.4375 180.417969 228.359375 181.980469 229.871094 C 182.027344 229.90625 182.058594 229.941406 182.097656 229.976562 C 183.65625 231.535156 184.621094 233.703125 184.621094 236.089844 Z M 192.878906 220.496094 C 189.5625 216.921875 184.425781 215.128906 177.472656 215.128906 L 172.675781 215.128906 C 165.734375 215.128906 160.597656 216.921875 157.277344 220.496094 C 153.957031 224.082031 152.292969 229.3125 152.292969 236.195312 L 152.292969 250.683594 L 151.199219 250.683594 C 145.921875 250.824219 142.304688 253.429688 140.011719 256.152344 C 137.71875 258.890625 136.394531 264.34375 136.394531 270.003906 L 136.394531 289.359375 L 149.382812 289.359375 L 149.382812 271.726562 C 149.382812 267.523438 151.769531 265.429688 156.566406 265.429688 L 177.472656 265.429688 C 184.425781 265.429688 189.5625 263.632812 192.878906 260.058594 C 196.199219 256.472656 197.863281 251.242188 197.863281 244.359375 L 197.863281 236.195312 C 197.863281 229.3125 196.199219 224.082031 192.878906 220.496094 "/>
<path fill-rule="nonzero" fill="rgb(100%, 100%, 100%)" fill-opacity="1" d="M 534.394531 197.546875 L 548.300781 195.882812 L 548.300781 265.421875 L 534.394531 265.421875 Z M 534.394531 197.546875 "/>
<path fill-rule="nonzero" fill="rgb(100%, 100%, 100%)" fill-opacity="1" d="M 744.445312 208.90625 L 758.257812 208.90625 L 758.257812 197.523438 L 744.445312 197.523438 Z M 744.445312 208.90625 "/>
<path fill-rule="nonzero" fill="rgb(100%, 100%, 100%)" fill-opacity="1" d="M 804.355469 289.359375 L 818.164062 289.359375 L 818.164062 277.980469 L 804.355469 277.980469 Z M 804.355469 289.359375 "/>
<path fill-rule="nonzero" fill="rgb(100%, 100%, 100%)" fill-opacity="1" d="M 804.355469 221.558594 L 804.355469 251.515625 L 787.625 251.515625 C 787.617188 251.515625 787.605469 251.515625 787.597656 251.515625 C 787.574219 251.515625 787.554688 251.515625 787.53125 251.515625 L 766.71875 251.417969 C 765.746094 251.417969 764.773438 251.222656 763.800781 250.835938 C 762.828125 250.445312 761.953125 249.859375 761.175781 249.082031 C 760.398438 248.304688 759.714844 247.332031 759.230469 246.164062 C 758.746094 244.996094 758.453125 243.539062 758.453125 241.886719 L 758.453125 221.460938 L 744.640625 221.460938 L 744.640625 243.832031 C 744.640625 245.289062 744.449219 246.554688 743.960938 247.527344 C 743.472656 248.5 742.890625 249.277344 742.210938 249.859375 C 741.53125 250.445312 740.75 250.835938 739.972656 251.027344 C 739.195312 251.222656 737.777344 251.433594 737.09375 251.433594 L 724.925781 251.433594 C 724.769531 251.433594 724.601562 251.433594 724.429688 251.433594 L 666.492188 251.433594 L 659.757812 251.386719 C 656.640625 251.359375 654.832031 251.109375 653.769531 250.84375 C 652.917969 250.554688 652.152344 250.164062 651.441406 249.667969 C 650.46875 248.984375 649.691406 248.109375 649.011719 247.039062 C 648.332031 245.972656 648.039062 244.707031 648.039062 243.148438 L 648.039062 197.523438 L 634.128906 197.523438 L 634.128906 251.433594 L 604.953125 251.433594 C 603.105469 251.433594 601.546875 251.320312 600.285156 250.734375 C 599.019531 250.152344 598.046875 249.375 597.269531 248.304688 C 596.492188 247.234375 596.003906 245.972656 595.710938 244.414062 C 595.421875 242.859375 595.226562 241.109375 595.226562 239.164062 L 595.226562 234.105469 L 583.070312 234.105469 L 583.070312 240.71875 C 583.070312 244.511719 583.554688 250.25 584.527344 253.070312 C 585.5 255.890625 586.765625 258.226562 588.417969 260.074219 C 590.070312 261.921875 592.113281 263.28125 594.449219 264.160156 C 596.78125 265.035156 599.261719 265.421875 602.082031 265.421875 L 645.554688 265.421875 C 646.238281 264.546875 646.773438 263.574219 647.164062 262.308594 C 647.550781 261.046875 647.84375 260.074219 647.941406 259.394531 L 648.332031 259.394531 C 648.71875 260.363281 649.300781 261.242188 650.082031 262.019531 C 650.859375 262.796875 651.734375 263.476562 652.707031 263.964844 C 653.679688 264.449219 654.039062 264.640625 655.011719 264.933594 C 655.984375 265.226562 655.984375 265.226562 657.476562 265.421875 L 737.832031 265.421875 C 738.902344 265.421875 740.070312 265.324219 741.429688 265.132812 C 742.792969 264.9375 744.15625 264.546875 745.613281 264.0625 C 747.074219 263.574219 748.53125 262.894531 749.992188 262.019531 C 751.449219 261.144531 752.714844 260.074219 753.878906 258.710938 C 754.5625 259.585938 755.339844 260.460938 756.3125 261.242188 C 757.285156 262.019531 758.257812 262.699219 759.328125 263.28125 C 760.398438 263.867188 761.5625 264.351562 762.828125 264.742188 C 764.09375 265.132812 765.511719 265.4375 766.777344 265.4375 L 768.332031 265.429688 C 768.917969 265.453125 770.613281 265.421875 770.996094 265.421875 L 787.625 265.421875 C 787.644531 265.421875 787.660156 265.421875 787.675781 265.417969 C 787.695312 265.421875 787.707031 265.421875 787.722656 265.421875 L 818.164062 265.421875 L 818.164062 221.558594 Z M 804.355469 221.558594 "/>
<path fill-rule="nonzero" fill="rgb(100%, 100%, 100%)" fill-opacity="1" d="M 503.296875 197.523438 L 503.191406 251.433594 L 433.273438 251.433594 C 431.621094 251.433594 430.265625 251.027344 429.292969 249.957031 C 428.320312 248.886719 427.835938 247.136719 427.835938 244.707031 L 427.835938 221.558594 L 414.023438 221.558594 L 414.023438 245.191406 C 414.023438 247.625 413.441406 249.375 412.273438 250.445312 C 411.105469 251.515625 409.355469 252 406.921875 252 C 404.492188 252 402.546875 251.515625 401.089844 250.445312 C 399.628906 249.375 398.851562 247.625 398.851562 245.191406 L 398.851562 221.558594 L 385.039062 221.558594 L 385.039062 245.191406 C 385.039062 247.625 384.457031 249.375 383.289062 250.445312 C 382.121094 251.515625 380.371094 252 377.941406 252 C 375.507812 252 373.5625 251.515625 372.105469 250.445312 C 370.648438 249.375 369.867188 247.625 369.867188 245.191406 L 369.867188 221.558594 L 356.058594 221.558594 L 356.058594 244.707031 C 356.058594 247.136719 355.570312 248.886719 354.597656 249.957031 C 353.625 251.027344 352.253906 251.433594 350.601562 251.433594 L 344.179688 251.433594 C 344.171875 251.433594 344.160156 251.4375 344.152344 251.4375 C 344.128906 251.4375 344.109375 251.433594 344.085938 251.433594 L 283.644531 251.433594 L 278.207031 251.320312 C 277.21875 251.253906 276.265625 251.125 275.292969 250.734375 C 274.320312 250.347656 273.445312 249.765625 272.664062 248.984375 C 271.886719 248.207031 271.207031 247.234375 270.71875 246.066406 C 270.234375 244.898438 269.941406 243.441406 269.941406 241.789062 L 269.941406 197.523438 L 256.128906 197.523438 L 256.128906 243.929688 C 256.128906 245.386719 255.9375 246.652344 255.449219 247.625 C 254.964844 248.597656 254.378906 249.375 253.699219 249.957031 C 253.019531 250.542969 252.242188 250.929688 251.460938 251.125 C 250.683594 251.320312 250.003906 251.417969 249.324219 251.417969 L 237.75 251.417969 L 237.75 211.25 L 223.9375 211.25 L 223.9375 251.417969 L 206.554688 251.417969 L 206.554688 265.421875 L 249.324219 265.421875 C 250.394531 265.421875 251.882812 265.183594 252.921875 265.035156 C 254.28125 264.835938 255.644531 264.449219 257.105469 263.964844 C 258.5625 263.476562 260.023438 262.796875 261.480469 261.921875 C 262.941406 261.046875 264.203125 259.976562 265.371094 258.617188 C 266.050781 259.492188 266.828125 260.367188 267.800781 261.144531 C 268.773438 261.921875 269.746094 262.601562 270.816406 263.1875 C 271.886719 263.769531 273.054688 264.257812 274.320312 264.644531 C 275.582031 265.035156 276.84375 265.164062 278.113281 265.226562 L 282.289062 265.421875 L 344.195312 265.421875 C 344.210938 265.421875 344.226562 265.421875 344.242188 265.417969 C 344.261719 265.421875 344.273438 265.421875 344.289062 265.421875 L 358.003906 265.421875 C 359.265625 265.421875 360.433594 265.226562 361.601562 264.742188 C 362.769531 264.257812 363.742188 263.671875 364.617188 262.992188 C 365.492188 262.308594 366.171875 261.628906 366.753906 260.949219 C 367.339844 260.269531 367.632812 259.78125 367.730469 259.394531 L 368.117188 259.394531 C 368.796875 261.242188 370.355469 262.796875 372.785156 263.964844 C 375.21875 265.132812 378.136719 265.714844 381.636719 265.714844 C 385.234375 265.714844 388.25 265.226562 390.683594 264.160156 C 393.113281 263.089844 395.058594 261.433594 396.519531 259.199219 L 396.90625 259.199219 C 396.992188 259.433594 397.097656 259.664062 397.210938 259.890625 C 397.976562 261.519531 399.453125 262.90625 401.660156 263.964844 C 403.609375 264.898438 405.882812 265.441406 408.503906 265.628906 C 408.792969 265.65625 409.082031 265.6875 409.394531 265.714844 L 410.425781 265.714844 C 410.441406 265.714844 410.457031 265.714844 410.472656 265.714844 C 410.488281 265.714844 410.5 265.714844 410.511719 265.714844 C 414.109375 265.714844 417.125 265.226562 419.558594 264.160156 C 421.941406 263.109375 423.941406 261.371094 425.390625 259.199219 L 425.695312 259.199219 C 426.082031 260.171875 426.667969 261.046875 427.445312 261.824219 C 428.222656 262.601562 429.097656 263.285156 430.070312 263.769531 C 431.042969 264.257812 432.015625 264.644531 432.988281 264.9375 C 433.960938 265.226562 434.933594 265.421875 435.808594 265.421875 L 517.109375 265.421875 L 517.109375 197.523438 Z M 503.296875 197.523438 "/>
</svg>
